<?xml version="1.0" standalone="no"?>
<!DOCTYPE svg PUBLIC "-//W3C//DTD SVG 20010904//EN"
 "http://www.w3.org/TR/2001/REC-SVG-20010904/DTD/svg10.dtd">
<svg version="1.0" xmlns="http://www.w3.org/2000/svg"
 width="512.000000pt" height="512.000000pt" viewBox="0 0 512.000000 512.000000"
 preserveAspectRatio="xMidYMid meet">
<metadata>
Created by potrace 1.14, written by Peter Selinger 2001-2017
</metadata>
<g transform="translate(0.000000,512.000000) scale(0.100000,-0.100000)"
fill="#000000" stroke="none">
<path d="M808 4869 c-257 -34 -475 -229 -545 -489 -17 -61 -18 -176 -18 -1820
0 -1963 -6 -1800 72 -1960 51 -105 178 -232 283 -283 160 -78 -3 -72 1960 -72
1963 0 1800 -6 1960 72 105 51 232 178 283 283 78 160 72 -3 72 1960 0 1963 6
1800 -72 1960 -51 105 -178 232 -283 283 -160 78 8 72 -1920 73 -949 1 -1755
-2 -1792 -7z m1087 -1303 c39 -10 112 -38 164 -63 75 -36 108 -59 165 -116
119 -120 173 -252 183 -442 14 -273 -92 -489 -300 -609 -36 -21 -65 -41 -63
-45 29 -49 429 -787 433 -797 4 -12 -36 -14 -239 -14 l-244 0 -199 375 -200
375 -162 0 -163 0 0 -375 0 -375 -225 0 -225 0 0 1056 0 1055 503 -4 c437 -3
511 -6 572 -21z m2485 -161 l0 -185 -325 0 -325 0 0 -870 0 -870 -220 0 -220
0 0 870 0 870 -320 0 -320 0 0 185 0 185 865 0 865 0 0 -185z"/>
<path d="M1270 2909 l0 -321 223 4 c198 3 228 6 275 25 119 48 171 122 179
257 7 113 -13 182 -73 246 -80 85 -182 110 -456 110 l-148 0 0 -321z"/>
</g>
</svg>
