<?xml version="1.0" encoding="UTF-8" standalone="no"?>
<!DOCTYPE svg PUBLIC "-//W3C//DTD SVG 1.1//EN" "http://www.w3.org/Graphics/SVG/1.1/DTD/svg11.dtd">
<!-- Created with Vectornator (http://vectornator.io/) -->
<svg height="100%" stroke-miterlimit="10" style="fill-rule:nonzero;clip-rule:evenodd;stroke-linecap:round;stroke-linejoin:round;" version="1.1" viewBox="0 0 50 50" width="100%" xml:space="preserve" xmlns="http://www.w3.org/2000/svg" xmlns:vectornator="http://vectornator.io" xmlns:xlink="http://www.w3.org/1999/xlink">
<defs/>
<g id="Untitled" vectornator:layerName="Untitled">
<path d="M44.7635 35.7498C43.6854 38.1443 43.1659 39.2147 41.7792 41.3279C39.8378 44.2811 37.0995 47.9686 33.7167 47.992C30.7049 48.0193 29.9276 46.0272 25.8378 46.0623C21.7518 46.0818 20.9003 48.0311 17.8846 47.9998C14.4979 47.9686 11.9081 44.6483 9.96667 41.699C4.53698 33.4295 3.96276 23.7342 7.31823 18.5779C9.69323 14.9217 13.4471 12.7733 16.9745 12.7733C20.5682 12.7733 22.826 14.7459 25.7948 14.7459C28.6776 14.7459 30.4315 12.7693 34.5878 12.7693C37.7284 12.7693 41.0487 14.4803 43.4237 17.4334C35.6581 21.6912 36.9198 32.7811 44.7635 35.7498ZM31.4315 9.46856C32.9432 7.52716 34.0917 4.78888 33.6737 1.99981C31.2089 2.16778 28.326 3.742 26.6424 5.78106C25.1151 7.64044 23.8495 10.3983 24.3417 13.0662C27.0331 13.1522 29.8182 11.5467 31.4315 9.46856Z" fill="#4f4f4f" fill-rule="evenodd" opacity="1" stroke="none"/>
</g>
</svg>
